<?xml version="1.0" standalone="no"?>
<!DOCTYPE svg PUBLIC "-//W3C//DTD SVG 20010904//EN"
 "http://www.w3.org/TR/2001/REC-SVG-20010904/DTD/svg10.dtd">
<svg version="1.0" xmlns="http://www.w3.org/2000/svg"
 width="300.000000pt" height="276.000000pt" viewBox="0 0 300.000000 276.000000"
 preserveAspectRatio="xMidYMid meet">

<g transform="translate(0.000000,276.000000) scale(0.100000,-0.100000)"
fill="#000000" stroke="none">
<path d="M1393 2604 c-39 -20 -57 -62 -50 -116 17 -127 207 -106 207 22 0 44
-28 87 -63 100 -40 13 -56 12 -94 -6z"/>
<path d="M1036 2529 c-20 -50 -15 -84 26 -155 28 -50 114 -144 131 -144 5 0 7
43 5 98 -7 132 -32 193 -94 221 -24 12 -46 21 -48 21 -2 0 -11 -19 -20 -41z
m154 -271 c0 -6 -6 -5 -15 2 -8 7 -15 14 -15 16 0 2 7 1 15 -2 8 -4 15 -11 15
-16z"/>
<path d="M1784 2550 c-47 -22 -73 -70 -94 -173 -11 -53 -8 -132 5 -146 7 -7
115 106 115 121 0 6 -10 3 -22 -8 l-23 -19 19 22 c10 13 22 20 26 18 11 -7 25
14 45 67 16 44 16 49 0 92 -10 25 -20 46 -24 46 -3 -1 -25 -9 -47 -20z m-67
-162 c-3 -8 -6 -5 -6 6 -1 11 2 17 5 13 3 -3 4 -12 1 -19z"/>
<path d="M1252 2409 c5 -24 8 -83 5 -131 l-4 -87 45 -15 c25 -9 50 -16 55 -16
6 0 7 22 4 54 -6 60 -51 165 -91 211 l-25 29 11 -45z"/>
<path d="M1607 2403 c-44 -61 -103 -243 -79 -243 5 0 31 7 58 15 l49 14 -3
101 c-2 55 1 114 7 130 5 17 8 30 6 30 -2 0 -19 -21 -38 -47z m-50 -175 c-3
-8 -6 -5 -6 6 -1 11 2 17 5 13 3 -3 4 -12 1 -19z"/>
<path d="M775 2351 c-84 -35 -83 -156 1 -196 50 -24 107 -8 134 38 25 41 25
74 0 115 -28 46 -83 64 -135 43z"/>
<path d="M1000 2348 c0 -46 43 -175 76 -223 20 -30 40 -58 45 -61 5 -3 20 19
34 48 23 50 24 54 7 66 -61 45 -89 74 -123 126 -22 33 -39 52 -39 44z m129
-262 c-2 -2 -13 8 -23 22 l-19 27 24 -22 c12 -12 21 -24 18 -27z"/>
<path d="M1867 2327 c-21 -39 -67 -90 -121 -134 l-39 -32 24 -48 c26 -49 46
-59 41 -20 -1 17 0 19 7 8 13 -19 65 64 85 133 13 48 27 126 23 126 -2 0 -10
-15 -20 -33z m-57 -181 c0 -3 -4 -8 -10 -11 -5 -3 -10 -1 -10 4 0 6 5 11 10
11 6 0 10 -2 10 -4z"/>
<path d="M1994 2326 c-96 -96 30 -239 141 -159 59 42 54 136 -9 174 -49 30
-92 25 -132 -15z"/>
<path d="M1224 2116 c-4 -11 -17 -37 -30 -57 -21 -35 -22 -38 -6 -52 29 -25
82 -48 94 -41 7 4 8 3 4 -4 -5 -8 0 -12 12 -12 16 0 25 14 41 62 12 34 21 67
21 73 0 15 -72 37 -96 29 -14 -4 -15 -3 -6 4 11 7 9 10 -7 15 -15 3 -22 -1
-27 -17z"/>
<path d="M1593 2117 c-53 -16 -63 -22 -62 -40 1 -41 35 -122 52 -125 21 -4
127 56 127 71 -1 7 -13 35 -28 63 l-27 50 -62 -19z"/>
<path d="M1414 2063 c-3 -16 -12 -48 -20 -72 -8 -25 -14 -48 -14 -51 0 -10 79
-20 111 -13 25 5 26 6 13 31 -7 15 -18 50 -24 79 -10 46 -14 53 -36 53 -18 0
-25 -7 -30 -27z m19 -120 c-7 -2 -19 -2 -25 0 -7 3 -2 5 12 5 14 0 19 -2 13
-5z"/>
<path d="M748 2050 c18 -11 38 -17 44 -14 7 4 8 2 4 -4 -8 -13 61 -79 77 -74
4 1 6 -2 2 -8 -3 -6 2 -21 13 -35 l19 -24 52 25 c50 25 51 27 35 45 -18 20
-40 27 -29 9 3 -6 -1 -7 -10 -3 -12 4 -13 8 -5 13 7 4 8 10 4 13 -74 44 -167
77 -219 77 -16 0 -13 -4 13 -20z"/>
<path d="M2078 2054 c-71 -17 -130 -46 -170 -84 l-30 -29 50 -25 50 -25 53 61
c29 33 73 74 98 89 50 32 39 35 -51 13z m-48 -38 c0 -3 -4 -8 -10 -11 -5 -3
-10 -1 -10 4 0 6 5 11 10 11 6 0 10 -2 10 -4z"/>
<path d="M533 2034 l-32 -16 15 -37 c21 -50 40 -66 112 -90 64 -22 212 -30
212 -12 0 22 -107 113 -165 141 -71 34 -96 36 -142 14z"/>
<path d="M2207 2019 c-61 -31 -157 -116 -157 -138 0 -10 21 -12 93 -9 126 6
195 37 224 99 l21 44 -31 17 c-46 25 -84 21 -150 -13z m-87 -83 c0 -2 -8 -10
-17 -17 -16 -13 -17 -12 -4 4 13 16 21 21 21 13z m5 -35 c-3 -6 -11 -11 -16
-11 -5 0 -4 6 3 14 14 16 24 13 13 -3z"/>
<path d="M1110 1955 c-9 -11 -5 -25 24 -72 20 -32 36 -66 36 -76 0 -9 4 -17 8
-17 9 0 102 93 102 102 0 3 -12 9 -27 13 -15 3 -47 20 -71 36 -49 33 -55 34
-72 14z m70 -35 c0 -5 -2 -10 -4 -10 -3 0 -8 5 -11 10 -3 6 -1 10 4 10 6 0 11
-4 11 -10z m-9 -47 c13 -16 12 -17 -3 -4 -10 7 -18 15 -18 17 0 8 8 3 21 -13z
m69 4 c0 -2 -9 -14 -20 -27 -11 -13 -20 -19 -20 -15 0 5 7 17 17 27 15 17 23
22 23 15z"/>
<path d="M1710 1944 c-19 -13 -50 -30 -67 -36 -18 -7 -33 -15 -33 -18 0 -3 22
-27 50 -54 l49 -47 16 37 c8 20 15 40 15 45 0 5 3 9 8 9 4 0 14 13 23 28 13
23 14 32 4 45 -16 22 -23 21 -65 -9z m-56 -70 c5 -14 4 -15 -9 -4 -17 14 -19
20 -6 20 5 0 12 -7 15 -16z"/>
<path d="M998 1871 c-26 -15 -50 -29 -53 -33 -11 -11 28 -128 42 -128 8 0 12
4 9 9 -4 5 2 7 12 4 28 -7 118 32 114 51 -4 20 -65 126 -72 125 -3 -1 -26 -13
-52 -28z"/>
<path d="M1823 1888 c-15 -22 -63 -115 -63 -125 0 -9 73 -37 126 -47 30 -7 31
-5 41 41 7 26 15 56 18 65 5 13 0 20 -16 27 -13 6 -37 19 -54 30 -35 24 -40
25 -52 9z m7 -53 c0 -8 -4 -15 -10 -15 -5 0 -7 7 -4 15 4 8 8 15 10 15 2 0 4
-7 4 -15z"/>
<path d="M620 1826 c0 -9 102 -71 147 -89 49 -19 143 -33 143 -21 0 5 -6 29
-14 54 l-13 44 -114 1 c-63 1 -122 5 -131 9 -10 5 -18 6 -18 2z m147 -32 c-3
-3 -12 -4 -19 -1 -8 3 -5 6 6 6 11 1 17 -2 13 -5z"/>
<path d="M2215 1819 c-22 -5 -78 -8 -124 -6 l-84 2 -18 -54 -19 -54 56 7 c62
7 163 51 209 90 17 14 28 25 25 24 -3 0 -23 -4 -45 -9z"/>
<path d="M514 1726 c-31 -14 -64 -67 -64 -103 0 -30 36 -79 69 -92 44 -19 95
-6 125 30 46 54 25 138 -39 165 -42 17 -51 17 -91 0z"/>
<path d="M2284 1726 c-40 -18 -64 -52 -64 -93 0 -89 81 -139 160 -98 38 20 50
43 50 97 0 32 -6 50 -25 71 -14 15 -31 27 -38 27 -7 0 -21 2 -32 5 -11 3 -34
-2 -51 -9z"/>
<path d="M1746 1693 c-3 -3 -6 -35 -6 -71 0 -62 1 -64 23 -57 12 4 50 15 85
24 57 14 62 18 60 40 -3 21 -11 26 -58 36 -30 6 -65 16 -76 23 -12 6 -24 8
-28 5z"/>
<path d="M1070 1674 c-19 -7 -47 -13 -62 -13 -24 -1 -28 -5 -28 -28 0 -26 5
-29 68 -46 104 -27 97 -30 100 41 3 59 2 62 -20 61 -13 -1 -39 -7 -58 -15z
m-56 -49 c3 -8 1 -15 -4 -15 -6 0 -10 7 -10 15 0 8 2 15 4 15 2 0 6 -7 10 -15z"/>
<path d="M825 1536 c-58 -14 -139 -54 -175 -86 l-25 -21 25 5 c72 14 121 16
172 8 l57 -9 16 45 c26 79 23 81 -70 58z m-3 -23 c-12 -2 -20 -8 -17 -13 3 -5
0 -12 -6 -16 -8 -5 -9 -3 -4 6 5 9 1 10 -16 6 -24 -7 -24 -7 1 8 14 9 34 15
45 14 17 -1 17 -1 -3 -5z m-45 -49 c-3 -3 -12 -4 -19 -1 -8 3 -5 6 6 6 11 1
17 -2 13 -5z"/>
<path d="M1980 1540 c0 -6 5 -31 11 -55 l11 -43 106 0 c59 1 120 -4 135 -10
43 -18 24 4 -37 42 -82 52 -226 94 -226 66z m138 -77 c-10 -2 -26 -2 -35 0
-10 3 -2 5 17 5 19 0 27 -2 18 -5z"/>
<path d="M962 1497 c-7 -25 -9 -54 -6 -64 5 -15 4 -15 -5 -3 -9 13 -11 13 -11
0 0 -8 25 -28 56 -44 55 -29 57 -29 71 -10 9 10 26 42 39 69 l24 50 -42 19
c-23 10 -58 21 -78 23 -37 5 -37 5 -48 -40z m93 5 c-3 -3 -11 0 -18 7 -9 10
-8 11 6 5 10 -3 15 -9 12 -12z m-1 -117 c-4 -8 -11 -12 -16 -9 -6 4 -5 10 3
15 19 12 19 11 13 -6z"/>
<path d="M1822 1521 c-29 -10 -55 -21 -58 -24 -6 -6 51 -123 65 -131 5 -4 35
6 66 21 40 20 54 32 50 43 -4 8 -11 36 -17 63 -13 55 -22 57 -106 28z m-5 -27
c-3 -3 -12 -4 -19 -1 -8 3 -5 6 6 6 11 1 17 -2 13 -5z m40 -110 c-3 -3 -12 -4
-19 -1 -8 3 -5 6 6 6 11 1 17 -2 13 -5z"/>
<path d="M1170 1447 c0 -7 -16 -39 -35 -72 -33 -54 -34 -59 -19 -76 16 -18 18
-18 46 3 17 11 51 31 76 43 l46 22 -48 47 c-49 47 -66 56 -66 33z"/>
<path d="M1653 1416 l-48 -48 26 -13 c14 -8 32 -15 40 -17 8 -2 16 -5 19 -8 3
-3 19 -16 36 -28 31 -21 32 -21 49 -2 16 18 16 20 -9 53 -14 19 -26 37 -26 40
0 4 -9 21 -19 39 l-20 32 -48 -48z m27 0 c0 -2 -8 -10 -17 -17 -16 -13 -17
-12 -4 4 13 16 21 21 21 13z m-14 -52 c18 -14 18 -14 -6 -3 -31 14 -36 19 -24
19 6 0 19 -7 30 -16z"/>
<path d="M665 1375 c-90 -23 -124 -42 -140 -81 -8 -20 -15 -42 -15 -49 0 -16
53 -38 91 -37 43 1 125 50 188 111 51 49 54 55 36 62 -30 11 -103 9 -160 -6z
m18 -22 c-7 -2 -19 -2 -25 0 -7 3 -2 5 12 5 14 0 19 -2 13 -5z m-35 -11 c8 -6
2 -9 -18 -9 -20 0 -26 3 -18 9 7 4 15 8 18 8 3 0 11 -4 18 -8z m-61 -18 c-3
-3 -12 -4 -19 -1 -8 3 -5 6 6 6 11 1 17 -2 13 -5z m16 -101 c-7 -2 -19 -2 -25
0 -7 3 -2 5 12 5 14 0 19 -2 13 -5z"/>
<path d="M2068 1384 c-26 -8 -23 -16 24 -63 52 -51 124 -95 141 -85 6 4 9 3 4
-1 -4 -5 7 -15 24 -22 28 -12 38 -11 76 3 47 18 50 25 29 76 -15 34 -28 44
-100 73 -41 16 -167 28 -198 19z m70 -21 c-10 -2 -26 -2 -35 0 -10 3 -2 5 17
5 19 0 27 -2 18 -5z m7 -61 c-3 -3 -11 0 -18 7 -9 10 -8 11 6 5 10 -3 15 -9
12 -12z"/>
<path d="M842 1290 c-34 -37 -77 -75 -95 -84 l-32 -16 33 0 c48 0 169 45 218
82 24 18 44 36 44 39 0 6 -94 50 -102 48 -2 0 -31 -31 -66 -69z"/>
<path d="M1923 1337 c-24 -11 -43 -24 -43 -28 0 -3 24 -23 53 -43 56 -38 159
-76 205 -76 26 1 26 1 6 13 -41 24 -112 88 -135 122 -28 40 -30 41 -86 12z
m27 -59 c0 -12 -6 -9 -26 13 -19 22 -19 22 4 8 12 -8 22 -17 22 -21z m51 -31
c-10 -9 -11 -8 -5 6 3 10 9 15 12 12 3 -3 0 -11 -7 -18z m49 -11 c-7 -7 -13
-7 -20 0 -6 6 -3 10 10 10 13 0 16 -4 10 -10z"/>
<path d="M1386 1295 c8 -19 19 -57 25 -85 9 -42 14 -50 33 -50 20 0 25 8 36
58 7 31 19 69 26 85 l15 27 -75 0 -75 0 15 -35z m41 -67 c-3 -8 -6 -5 -6 6 -1
11 2 17 5 13 3 -3 4 -12 1 -19z"/>
<path d="M1271 1294 c-19 -8 -49 -24 -68 -35 l-33 -21 31 -56 c18 -32 33 -58
35 -60 1 -2 19 4 39 12 21 9 49 16 62 16 24 0 25 2 19 38 -8 41 -38 122 -46
122 -3 -1 -20 -7 -39 -16z m56 -76 c-3 -8 -6 -5 -6 6 -1 11 2 17 5 13 3 -3 4
-12 1 -19z m-77 -70 c0 -19 -16 -5 -17 14 -2 18 0 20 7 8 5 -8 10 -18 10 -22z"/>
<path d="M1556 1265 c-10 -25 -19 -59 -20 -76 -1 -29 2 -32 59 -49 32 -11 60
-18 60 -17 24 38 61 118 57 121 -36 22 -122 66 -129 66 -4 0 -16 -20 -27 -45z
m49 15 c3 -6 -1 -7 -9 -4 -18 7 -21 14 -7 14 6 0 13 -4 16 -10z"/>
<path d="M1082 1135 c-42 -63 -63 -118 -77 -200 l-7 -40 30 43 c30 45 110 132
121 132 3 0 12 4 20 9 11 7 9 19 -14 65 -15 31 -28 56 -29 56 -1 0 -21 -29
-44 -65z"/>
<path d="M1730 1139 c-20 -43 -22 -52 -10 -60 8 -5 21 -7 28 -4 7 3 10 0 7 -5
-7 -11 64 -77 78 -72 4 1 6 -2 2 -7 -3 -6 8 -29 24 -51 l30 -42 -5 39 c-10 69
-44 157 -79 206 -20 26 -39 47 -43 47 -5 0 -19 -23 -32 -51z"/>
<path d="M751 1084 c-99 -83 3 -227 123 -173 26 12 56 63 56 96 0 87 -111 135
-179 77z"/>
<path d="M2013 1100 c-26 -11 -53 -59 -53 -96 0 -92 111 -138 182 -76 27 25
31 36 31 77 0 41 -4 52 -31 77 -34 29 -83 36 -129 18z"/>
<path d="M1335 1092 c-11 -2 -34 -10 -51 -18 l-30 -15 4 -82 c2 -45 -1 -102
-7 -127 -5 -24 -9 -46 -8 -47 2 -1 22 26 44 61 68 104 96 237 48 228z"/>
<path d="M1527 1057 c8 -66 40 -144 84 -206 23 -31 37 -45 33 -31 -5 14 -9 73
-9 133 l0 107 -30 14 c-16 7 -42 16 -57 20 -26 6 -26 5 -21 -37z m40 -79 c-3
-8 -6 -5 -6 6 -1 11 2 17 5 13 3 -3 4 -12 1 -19z"/>
<path d="M1157 999 c-45 -37 -109 -129 -126 -181 -10 -30 -10 -46 -1 -75 7
-21 16 -42 20 -46 11 -13 87 22 104 47 29 45 47 132 44 210 l-3 76 -38 -31z
m3 -29 c0 -5 -5 -10 -11 -10 -5 0 -7 5 -4 10 3 6 8 10 11 10 2 0 4 -4 4 -10z
m-30 -44 c0 -2 -7 -7 -16 -10 -8 -3 -12 -2 -9 4 6 10 25 14 25 6z m-37 -41
c-3 -9 -8 -14 -10 -11 -3 3 -2 9 2 15 9 16 15 13 8 -4z m47 -129 c0 -2 -8 -10
-17 -17 -16 -13 -17 -12 -4 4 13 16 21 21 21 13z m-55 -36 c-3 -5 -12 -10 -18
-10 -7 0 -6 4 3 10 19 12 23 12 15 0z"/>
<path d="M1686 991 c-8 -52 2 -124 26 -191 24 -67 32 -77 76 -96 47 -19 48
-19 66 27 14 33 14 47 5 79 -7 22 -16 37 -22 33 -6 -3 -7 -1 -3 5 11 19 -69
128 -125 170 -14 11 -17 7 -23 -27z"/>
<path d="M1368 820 c-28 -28 -30 -35 -26 -81 6 -62 30 -88 85 -96 105 -14 165
100 94 176 -24 26 -36 31 -76 31 -39 0 -52 -5 -77 -30z"/>
<path d="M514 308 c13 -35 30 -63 37 -63 6 0 19 19 28 43 8 23 18 42 21 42 3
0 13 -19 21 -42 9 -23 20 -43 25 -45 6 -2 22 26 36 62 18 46 22 65 12 65 -7 0
-18 -16 -24 -35 -16 -50 -27 -51 -41 -5 -16 54 -40 53 -61 -2 l-16 -43 -18 43
c-9 23 -23 42 -30 42 -10 0 -7 -17 10 -62z"/>
<path d="M1550 304 c0 -48 3 -65 13 -62 6 3 13 17 15 31 3 24 7 27 43 27 37 0
39 -2 39 -30 0 -20 5 -30 15 -30 12 0 15 14 15 65 0 51 -3 65 -15 65 -9 0 -15
-9 -15 -25 0 -22 -4 -25 -40 -25 -36 0 -40 3 -40 25 0 16 -6 25 -15 25 -12 0
-15 -14 -15 -66z"/>
<path d="M750 295 l0 -55 45 0 c25 0 45 5 45 10 0 6 -16 10 -35 10 -24 0 -35
5 -35 15 0 9 9 15 25 15 14 0 25 5 25 10 0 6 -11 10 -25 10 -16 0 -25 6 -25
16 0 13 8 15 35 12 19 -2 35 0 35 4 0 4 -20 8 -45 8 l-45 0 0 -55z"/>
<path d="M892 298 c-21 -48 -22 -83 -1 -45 13 22 58 22 75 0 23 -33 24 -7 2
45 -13 29 -30 52 -38 52 -8 0 -25 -23 -38 -52z m58 -10 c0 -4 -9 -8 -21 -8
-15 0 -19 4 -15 16 3 9 6 21 6 27 1 13 30 -22 30 -35z"/>
<path d="M1030 295 l0 -55 50 0 c28 0 50 5 50 10 0 6 -18 10 -40 10 l-40 0 0
45 c0 25 -4 45 -10 45 -5 0 -10 -25 -10 -55z"/>
<path d="M1170 341 c22 -6 25 -13 28 -54 4 -61 20 -61 24 1 2 27 8 47 15 47 6
0 15 3 19 8 4 4 -19 7 -52 6 -40 -1 -51 -3 -34 -8z"/>
<path d="M1300 295 c0 -30 5 -55 10 -55 6 0 10 11 10 25 0 22 4 25 35 25 31 0
35 -3 35 -25 0 -14 5 -25 10 -25 6 0 10 25 10 55 0 30 -4 55 -10 55 -5 0 -10
-9 -10 -20 0 -16 -7 -20 -35 -20 -28 0 -35 4 -35 20 0 11 -4 20 -10 20 -5 0
-10 -25 -10 -55z"/>
<path d="M1746 298 l2 -53 46 -3 c28 -2 46 1 46 7 0 6 -18 11 -40 11 -29 0
-40 4 -40 15 0 10 10 15 30 15 17 0 30 5 30 11 0 6 -12 9 -27 7 -20 -2 -28 2
-28 12 0 11 11 15 38 15 20 0 37 3 37 8 0 4 -21 7 -48 7 l-47 0 1 -52z"/>
<path d="M1894 299 c-25 -50 -25 -81 0 -46 17 22 55 22 72 0 23 -33 24 -7 2
45 -13 28 -29 52 -35 52 -7 0 -24 -23 -39 -51z m56 -11 c0 -4 -9 -8 -21 -8
-15 0 -19 4 -15 16 3 9 6 21 6 27 1 13 30 -22 30 -35z"/>
<path d="M2030 295 l0 -55 50 0 c28 0 50 5 50 10 0 6 -18 10 -40 10 l-40 0 0
45 c0 25 -4 45 -10 45 -5 0 -10 -25 -10 -55z"/>
<path d="M2150 342 c0 -5 10 -8 23 -8 19 1 22 -5 25 -46 4 -64 22 -61 22 3 0
46 2 50 20 44 11 -4 20 -2 20 4 0 7 -23 11 -55 11 -30 0 -55 -4 -55 -8z"/>
<path d="M2300 295 c0 -30 5 -55 10 -55 6 0 10 11 10 25 0 22 4 25 35 25 31 0
35 -3 35 -25 0 -14 5 -25 10 -25 6 0 10 25 10 55 0 30 -4 55 -10 55 -5 0 -10
-9 -10 -20 0 -16 -7 -20 -35 -20 -28 0 -35 4 -35 20 0 11 -4 20 -10 20 -5 0
-10 -25 -10 -55z"/>
</g>
</svg>
